# Alias OBJ Model File
# Exported from SketchUp, (c) 2000-2012 Trimble Navigation Limited
# File units = millimeters

mtllib sci fi coin token chip.mtl

g Mesh1 Model

usemtl FrontColor
v 505.75 545.995 9.41065
vt 0.370498 -6.49587
vn -0.5 -0.866025 -5.97848e-13
v 576.063 505.4 9.41065
vt 0.370498 -9.69233
v 576.063 505.4 14.4106
vt 0.567348 -9.69233
v 505.75 545.995 14.4106
vt 0.567348 -6.49587
f 1/1/1 2/2/1 3/3/1 4/4/1 

vt -0.370498 28.5717
vn 0.866025 -0.5 -7.72644e-14
vt -0.567348 28.5717
v 552.625 464.805 14.4106
vt -0.567348 26.7262
v 552.625 464.805 9.41065
vt -0.370498 26.7262
f 2/5/2 3/6/2 5/7/2 6/8/2 

v 622.938 532.463 24.4106
vt -0.961049 31.7209
vn 0.5 -0.866025 1.39366e-14
v 576.063 505.4 24.4106
vt -0.961049 29.59
vt -0.567348 29.59
vt -0.370498 29.59
v 622.938 532.463 9.41065
vt -0.370498 31.7209
v 622.938 532.463 14.4106
vt -0.567348 31.7209
f 7/9/3 8/10/3 3/11/3 2/12/3 9/13/3 10/14/3 

vt 24.5251 20.9631
vn 1.68142e-15 1.80711e-15 1
v 622.938 613.653 24.4106
vt 24.5251 24.1596
v 622.938 640.716 24.4106
vt 24.5251 25.2251
v 529.188 640.716 24.4106
vt 20.8342 25.2251
v 482.313 559.526 24.4106
vt 18.9887 22.0286
v 505.75 545.995 24.4106
vt 19.9114 21.4959
vt 22.6796 19.8976
f 7/15/4 11/16/4 12/17/4 13/18/4 14/19/4 15/20/4 8/21/4 

vt -0.961049 24.1596
vn 1 7.78019e-15 -2.61693e-13
vt -0.961049 20.9631
vt -0.567348 20.9631
v 622.938 613.653 14.4106
vt -0.567348 24.1596
f 11/22/5 7/23/5 10/24/5 16/25/5 

v 669.813 608.653 14.4106
vt 26.3706 23.9627
vn 2.17447e-15 -9.85211e-16 1
v 669.813 613.653 14.4106
vt 26.3706 24.1596
v 669.813 532.463 14.4106
vt 26.3706 20.9631
f 17/26/6 18/27/6 16/16/6 10/15/6 19/28/6 

v 669.813 613.653 9.41065
vt -0.370498 24.1596
vn 1 1.44382e-13 5.21059e-27
vt -0.567348 23.9627
v 669.813 608.653 9.41065
vt -0.370498 23.9627
f 20/29/7 18/25/7 17/30/7 21/31/7 

vt 26.3706 -0.370498
vn 1.9251e-14 1 -6.4972e-15
v 669.813 613.653 -20.5894
vt 26.3706 0.810604
v 669.813 613.653 -25.5894
vt 26.3706 1.00745
v 622.938 613.653 -25.5894
vt 24.5251 1.00745
v 622.938 613.653 -20.5894
vt 24.5251 0.810604
v 622.938 613.653 9.41065
vt 24.5251 -0.370498
vt 24.5251 -0.567348
vt 26.3706 -0.567348
f 20/32/8 22/33/8 23/34/8 24/35/8 25/36/8 26/37/8 16/38/8 18/39/8 

vt 0.810604 24.1596
vn 1 -1.04231e-26 7.23828e-29
v 669.813 608.653 -20.5894
vt 0.810604 23.9627
f 22/40/9 20/29/9 21/31/9 27/41/9 

vn 1.00062e-30 1 -2.40637e-14
v 693.25 608.653 9.41065
vt 27.2933 -0.370498
v 693.25 608.653 -20.5894
vt 27.2933 0.810604
f 27/33/10 21/32/10 28/42/10 29/43/10 

vt 27.2933 23.9627
vn 2.18738e-28 2.36879e-15 1
v 669.813 532.463 9.41065
v 693.25 532.463 9.41065
vt 27.2933 20.9631
f 28/44/11 21/26/11 30/28/11 31/45/11 

vn 1 2.36879e-14 1.27339e-27
vt -0.370498 20.9631
f 17/30/12 19/24/12 30/46/12 21/31/12 

vt -26.3706 -0.370498
vn 5.77529e-14 -1 5.05338e-13
vt -26.3706 -0.567348
vt -24.5251 -0.567348
vt -24.5251 -0.370498
f 30/47/13 19/48/13 10/49/13 9/50/13 

vn 1 1.44403e-27 6.4972e-13
f 10/24/14 9/46/14 26/29/14 16/25/14 

vt -0.961049 25.2251
vn 1 -5.03146e-15 -7.71145e-15
vt 1.00745 24.1596
v 622.938 532.463 -25.5894
vt 1.00745 20.9631
v 622.938 532.463 -35.5894
vt 1.40116 20.9631
v 622.938 640.716 -35.5894
vt 1.40116 25.2251
f 12/51/15 11/22/15 16/25/15 26/29/15 25/40/15 24/52/15 32/53/15 33/54/15 34/55/15 

vn 1 8.89164e-15 -5.05338e-13
v 622.938 532.463 -20.5894
vt 0.810604 20.9631
f 25/40/16 35/56/16 32/53/16 24/52/16 

v 669.813 532.463 -20.5894
vt -26.3706 0.810604
vn -5.64253e-15 -1 -5.09349e-13
v 693.25 532.463 -20.5894
vt -27.2933 0.810604
v 693.25 532.463 -25.5894
vt -27.2933 1.00745
v 716.688 532.463 -25.5894
vt -28.2161 1.00745
v 740.125 532.463 -25.5894
vt -29.1388 1.00745
v 740.125 532.463 -20.5894
vt -29.1388 0.810604
v 763.563 532.463 -20.5894
vt -30.0615 0.810604
v 763.563 532.463 -25.5894
vt -30.0615 1.00745
v 810.438 532.463 -25.5894
vt -31.907 1.00745
v 810.438 532.463 -20.5894
vt -31.907 0.810604
v 810.438 532.463 -15.5894
vt -31.907 0.613754
v 716.688 532.463 -15.5894
vt -28.2161 0.613754
v 622.938 532.463 -15.5894
vt -24.5251 0.613754
vt -24.5251 0.810604
vt -24.5251 1.00745
v 669.813 532.463 -25.5894
vt -26.3706 1.00745
f 36/57/17 37/58/17 38/59/17 39/60/17 40/61/17 41/62/17 42/63/17 43/64/17 44/65/17 45/66/17 46/67/17 47/68/17 48/69/17 35/70/17 32/71/17 49/72/17 

vt -27.2933 20.9631
vn 7.70039e-15 9.47516e-15 -1
vt -26.3706 20.9631
vt -26.3706 23.9627
vt -27.2933 23.9627
f 37/73/18 36/74/18 27/75/18 29/76/18 

vn 1 2.48874e-14 4.9229e-14
f 27/41/19 36/56/19 49/53/19 23/52/19 22/40/19 

vn -3.85019e-15 8.89164e-15 -1
vt -24.5251 20.9631
vt -24.5251 24.1596
vt -26.3706 24.1596
f 49/74/20 32/77/20 24/78/20 23/79/20 

v 693.25 532.463 14.4106
vt 0.567348 20.9631
vn -1 6.17765e-15 -3.68175e-14
v 693.25 628.653 14.4106
vt 0.567348 24.7501
v 693.25 628.653 -25.5894
vt -1.00745 24.7501
vt -1.00745 20.9631
vt -0.810604 20.9631
vt -0.810604 23.9627
vt 0.370498 23.9627
vt 0.370498 20.9631
f 50/80/21 51/81/21 52/82/21 38/83/21 37/84/21 29/85/21 28/86/21 31/87/21 

v 740.125 608.653 14.4106
vt 29.1388 23.9627
vn -4.98465e-15 6.37786e-16 1
v 740.125 628.653 14.4106
vt 29.1388 24.7501
vt 27.2933 24.7501
v 716.688 532.463 14.4106
vt 28.2161 20.9631
v 740.125 532.463 14.4106
vt 29.1388 20.9631
f 53/88/22 54/89/22 51/90/22 50/45/22 55/91/22 56/92/22 

v 740.125 628.653 9.41065
vt -0.370498 24.7501
vn 1 -4.69242e-13 3.60956e-14
vt -0.567348 24.7501
v 740.125 608.653 9.41065
f 57/93/23 54/94/23 53/30/23 58/31/23 

vt 27.2933 1.00745
vn -9.818e-14 1 2.46506e-14
vt 27.2933 -0.567348
vt 29.1388 -0.567348
vt 29.1388 -0.370498
v 740.125 628.653 -20.5894
vt 29.1388 0.810604
v 740.125 628.653 -25.5894
vt 29.1388 1.00745
f 52/95/24 51/96/24 54/97/24 57/98/24 59/99/24 60/100/24 

vt 0.810604 24.7501
vn 1 -4.69242e-13 -6.01593e-15
v 740.125 608.653 -20.5894
f 59/101/25 57/93/25 58/31/25 61/41/25 

v 763.563 608.653 9.41065
vt 30.0615 -0.370498
vn -1.84809e-13 1 -0
v 763.563 608.653 -20.5894
vt 30.0615 0.810604
f 62/102/26 63/103/26 61/99/26 58/98/26 

v 763.563 532.463 14.4106
vn -1 7.30305e-15 8.66294e-15
v 763.563 613.653 14.4106
vt 0.567348 24.1596
v 763.563 613.653 -25.5894
vt -1.00745 24.1596
v 763.563 532.463 9.41065
f 64/80/27 65/104/27 66/105/27 43/83/27 42/84/27 63/85/27 62/86/27 67/87/27 

vt 30.0615 20.9631
vn -1.9251e-15 1.11146e-15 1
v 810.438 532.463 14.4106
vt 31.907 20.9631
v 810.438 613.653 14.4106
vt 31.907 24.1596
vt 30.0615 24.1596
f 64/106/28 68/107/28 69/108/28 65/109/28 

v 810.438 532.463 9.41065
vt -31.907 -0.370498
vn -1.07805e-13 -1 3.60956e-13
vt -31.907 -0.567348
vt -30.0615 -0.567348
vt -30.0615 -0.370498
f 70/110/29 68/111/29 64/112/29 67/113/29 

v 857.313 505.4 24.4106
vt 0.961049 -19.2817
vn -0.5 -0.866025 2.54673e-14
v 810.438 532.463 24.4106
vt 0.961049 -17.1507
vt 0.567348 -17.1507
vt 0.370498 -17.1507
v 857.313 505.4 9.41065
vt 0.370498 -19.2817
v 857.313 505.4 14.4106
vt 0.567348 -19.2817
f 71/114/30 72/115/30 68/116/30 70/117/30 73/118/30 74/119/30 

vt 33.7525 19.8976
vn -2.27656e-15 1.93638e-15 1
v 927.625 545.995 24.4106
vt 36.5207 21.4959
v 951.063 559.526 24.4106
vt 37.4434 22.0286
v 904.188 640.716 24.4106
vt 35.5979 25.2251
v 810.438 640.716 24.4106
vt 31.907 25.2251
f 71/120/31 75/121/31 76/122/31 77/123/31 78/124/31 72/107/31 

v 927.625 545.995 14.4106
vt -0.567348 42.3758
vn 0.5 -0.866025 -8.4168e-14
vt -0.961049 42.3758
vt -0.961049 39.1793
vt -0.567348 39.1793
f 79/125/32 75/126/32 71/127/32 74/128/32 

v 857.313 505.4 -35.5894
vt 1.40116 39.1793
vn 0.5 -0.866025 7.40356e-15
v 951.063 559.526 -35.5894
vt 1.40116 43.4413
vt -0.961049 43.4413
v 927.625 545.995 9.41065
vt -0.370498 42.3758
v 927.625 545.995 -20.5894
vt 0.810604 42.3758
v 927.625 545.995 -25.5894
vt 1.00745 42.3758
v 857.313 505.4 -25.5894
vt 1.00745 39.1793
f 80/129/33 81/130/33 76/131/33 75/126/33 79/125/33 82/132/33 83/133/33 84/134/33 85/135/33 

v 810.438 532.463 -35.5894
vt -31.907 20.9631
vn 1.0695e-16 1.85243e-16 -1
v 810.438 640.716 -35.5894
vt -31.907 25.2251
v 904.188 640.716 -35.5894
vt -35.5979 25.2251
vt -37.4434 22.0286
vt -33.7525 19.8976
f 86/136/34 87/137/34 88/138/34 81/139/34 80/140/34 

vn -1 -6.66873e-15 2.07629e-14
vt 0.961049 20.9631
vt 0.961049 25.2251
vt -1.40116 25.2251
vt -1.40116 20.9631
v 810.438 613.653 -25.5894
v 810.438 613.653 -20.5894
vt -0.810604 24.1596
v 810.438 613.653 9.41065
vt 0.370498 24.1596
f 68/80/35 72/141/35 78/142/35 87/143/35 86/144/35 44/83/35 89/105/35 90/145/35 91/146/35 69/104/35 

vt 35.5979 1.40116
vn 1.9251e-15 1 -1.50398e-14
vt 31.907 1.40116
vt 31.907 -0.961049
vt 35.5979 -0.961049
f 88/147/36 87/148/36 78/149/36 77/150/36 

vt 1.40116 0.355618
vn 0.866025 0.5 -9.71943e-15
vt 1.40116 4.04656
vt -0.961049 4.04656
vt -0.961049 0.355618
f 81/151/37 88/152/37 77/153/37 76/154/37 

vt -1.00745 -17.1507
vn -0.5 -0.866025 -2.75685e-14
vt -1.40116 -17.1507
vt -1.40116 -19.2817
vt -1.00745 -19.2817
v 857.313 505.4 -20.5894
vt -0.810604 -19.2817
v 857.313 505.4 -15.5894
vt -0.613754 -19.2817
vt -0.613754 -17.1507
vt -0.810604 -17.1507
f 44/155/38 86/156/38 80/157/38 85/158/38 92/159/38 93/160/38 46/161/38 45/162/38 

v 880.75 464.805 -20.5894
vt -0.810604 -1.48985
vn -0.866025 -0.5 9.60905e-14
v 892.469 444.507 -20.5894
vt -0.810604 -2.41259
v 892.469 444.507 -25.5894
vt -1.00745 -2.41259
v 904.188 424.21 -25.5894
vt -1.00745 -3.33533
v 915.907 403.912 -25.5894
vt -1.00745 -4.25806
v 915.907 403.912 -20.5894
vt -0.810604 -4.25806
v 927.625 383.615 -20.5894
vt -0.810604 -5.1808
v 927.625 383.615 -25.5894
vt -1.00745 -5.1808
v 951.063 343.02 -25.5894
vt -1.00745 -7.02627
v 951.063 343.02 -20.5894
vt -0.810604 -7.02627
v 951.063 343.02 -15.5894
vt -0.613754 -7.02627
v 904.188 424.21 -15.5894
vt -0.613754 -3.33533
vt -0.613754 0.355618
vt -0.810604 0.355618
vt -1.00745 0.355618
v 880.75 464.805 -25.5894
vt -1.00745 -1.48985
f 94/163/39 95/164/39 96/165/39 97/166/39 98/167/39 99/168/39 100/169/39 101/170/39 102/171/39 103/172/39 104/173/39 105/174/39 93/175/39 92/176/39 85/177/39 106/178/39 

vt -35.1366 17.5003
vn 1.59061e-14 -8.59988e-15 -1
vt -34.6752 18.2994
v 946.733 502.9 -20.5894
vt -37.2729 19.7992
v 958.451 482.602 -20.5894
vt -37.7343 19.0001
f 95/179/40 94/180/40 107/181/40 108/182/40 

vt 0.810604 42.1789
vn 0.5 -0.866025 4.38897e-14
vt 0.810604 39.1793
v 951.063 505.4 -25.5894
v 951.063 505.4 -20.5894
f 107/183/41 94/184/41 106/135/41 109/134/41 110/133/41 

vn 1.15506e-14 4.44582e-15 -1
vt -36.5207 21.4959
vt -37.4434 19.8976
f 106/180/42 85/140/42 84/185/42 109/186/42 

vt -1.00745 39.1793
vn -0.5 0.866025 1.55414e-13
vt -0.810604 39.1793
vt -0.810604 42.3758
vt -1.00745 42.3758
f 85/187/43 92/188/43 83/189/43 84/190/43 

vt -0.370498 0.355618
vn 0.866025 0.5 -6.02701e-15
vt -0.567348 0.355618
v 951.063 505.4 14.4106
vt -0.567348 -1.48985
vt 0.810604 -1.48985
vt 1.00745 -1.48985
vt 1.00745 0.355618
vt 0.810604 0.355618
f 82/191/44 79/192/44 111/193/44 110/194/44 109/195/44 84/196/44 83/197/44 

vn 0.5 -0.866025 2.46495e-13
vt -0.370498 39.1793
f 74/128/45 73/198/45 82/132/45 79/125/45 

v 880.75 464.805 9.41065
vt 0.370498 -1.48985
vn -0.866025 -0.5 1.80955e-14
v 880.75 464.805 14.4106
vt 0.567348 -1.48985
vt 0.567348 0.355618
vt 0.370498 0.355618
f 112/199/46 113/200/46 74/201/46 73/202/46 

v 946.733 502.9 14.4106
vt -0.567348 42.1789
vn 0.5 -0.866025 -1.58274e-14
v 946.733 502.9 9.41065
vt -0.370498 42.1789
f 114/203/47 113/128/47 112/198/47 115/204/47 

vt 37.2729 19.7992
vn 8.81519e-16 -6.95272e-15 1
vt 37.4434 19.8976
vt 34.6752 18.2994
f 114/205/48 111/206/48 79/121/48 74/120/48 113/207/48 

vn 0.5 -0.866025 -5.83362e-15
f 110/133/49 111/125/49 114/203/49 115/204/49 107/183/49 

v 958.451 482.602 9.41065
vt -0.370498 -2.41259
vn 0.866025 0.5 -1.34137e-14
vt 0.810604 -2.41259
vt -0.370498 -1.48985
f 116/208/50 108/209/50 107/194/50 115/210/50 

v 975.772 492.602 -20.5894
vt -0.810604 42.9663
vn -0.5 0.866025 5.39584e-15
vt -0.810604 42.1789
vt 0.370498 42.1789
v 958.451 482.602 14.4106
vt 0.567348 42.1789
v 975.772 492.602 14.4106
vt 0.567348 42.9663
f 117/211/51 108/212/51 116/213/51 118/214/51 119/215/51 

vn -0.5 0.866025 2.28059e-13
v 975.772 492.602 -25.5894
vt -1.00745 42.9663
f 108/212/52 117/211/52 120/216/52 96/187/52 95/188/52 

vn 0.866025 0.5 1.89722e-15
vt -0.567348 -2.41259
v 999.209 452.007 14.4106
vt -0.567348 -4.25806
v 999.209 452.007 -20.5894
vt 0.810604 -4.25806
v 999.209 452.007 -25.5894
vt 1.00745 -4.25806
vt 1.00745 -2.41259
f 117/209/53 119/217/53 121/218/53 122/219/53 123/220/53 120/221/53 

v 981.889 442.007 14.4106
vt 38.657 17.4019
vn -1.12988e-16 -8.95688e-15 1
vt 39.339 17.7956
vt 38.4162 19.3938
vt 37.7343 19.0001
v 892.469 444.507 14.4106
vt 35.1366 17.5003
v 904.188 424.21 14.4106
vt 35.5979 16.7012
v 915.907 403.912 14.4106
vt 36.0593 15.9021
f 124/222/54 121/223/54 119/224/54 118/225/54 125/226/54 126/227/54 127/228/54 

vt 0.810604 42.9663
vn 0.5 -0.866025 -9.78804e-16
vt -0.567348 42.9663
v 981.889 442.007 9.41065
v 981.889 442.007 -20.5894
f 122/229/55 121/230/55 124/203/55 128/204/55 129/183/55 

vn 0.5 -0.866025 -1.55426e-14
v 915.907 403.912 9.41065
f 124/203/56 127/128/56 130/198/56 128/204/56 

vt 0.370498 -4.25806
vn -0.866025 -0.5 -1.11901e-13
vt 0.567348 -4.25806
vt 0.567348 -3.33533
v 904.188 424.21 9.41065
vt 0.370498 -3.33533
f 130/231/57 127/232/57 126/233/57 131/234/57 

vn -0.866025 -0.5 -1.02829e-13
vt 0.567348 -2.41259
v 892.469 444.507 9.41065
vt 0.370498 -2.41259
f 131/234/58 126/233/58 125/235/58 132/236/58 

vt 0.567348 39.1793
vn -0.5 0.866025 1.59392e-14
vt 0.370498 39.1793
f 125/237/59 118/214/59 116/213/59 132/238/59 

vn 3.85019e-15 -6.66873e-15 1
f 116/225/60 115/205/60 112/207/60 132/226/60 

vn -0.866025 -0.5 1.80364e-14
v 880.75 464.805 4.41065
vt 0.173648 -1.48985
v 892.469 444.507 4.41065
vt 0.173648 -2.41259
f 132/236/61 112/199/61 133/239/61 134/240/61 

vn -0.866025 -0.5 -9.23131e-15
v 857.313 505.4 4.41065
vt 0.173648 0.355618
f 73/202/62 135/241/62 133/239/62 112/199/62 

vn -0.5 -0.866025 -7.81887e-14
v 810.438 532.463 4.41065
vt 0.173648 -17.1507
vt 0.173648 -19.2817
f 73/118/63 70/117/63 136/242/63 135/243/63 

vn 0 0 1
v 841.688 532.463 9.41065
vt 33.1373 20.9631
f 73/120/64 137/244/64 70/107/64

v 763.563 532.463 4.41065
vt -30.0615 -0.173648
vn -1.44382e-13 -1 -1.80478e-14
vt -31.907 -0.173648
f 138/245/65 136/246/65 70/110/65 67/113/65 

v 857.313 126.514 4.41065
vt 33.7525 4.98086
vn -6.90546e-16 6.25846e-17 1
v 880.75 167.109 4.41065
vt 34.6752 6.57908
v 892.469 187.406 4.41065
vt 35.1366 7.37819
v 904.188 207.704 4.41065
vt 35.5979 8.17731
v 915.907 228.001 4.41065
vt 36.0593 8.97642
v 927.625 248.299 4.41065
vt 36.5207 9.77553
v 951.063 288.893 4.41065
vt 37.4434 11.3738
v 951.063 343.02 4.41065
vt 37.4434 13.5047
v 927.625 383.615 4.41065
vt 36.5207 15.103
v 915.907 403.912 4.41065
v 904.188 424.21 4.41065
v 740.125 532.463 4.41065
v 716.688 532.463 4.41065
v 693.25 532.463 4.41065
v 669.813 532.463 4.41065
v 622.938 532.463 4.41065
v 576.063 505.4 4.41065
v 552.625 464.805 4.41065
vt 21.7569 18.2994
v 540.907 444.507 4.41065
vt 21.2955 17.5003
v 529.188 424.21 4.41065
vt 20.8342 16.7012
v 517.469 403.912 4.41065
vt 20.3728 15.9021
v 505.75 383.615 4.41065
vt 19.9114 15.103
v 482.313 343.02 4.41065
vt 18.9887 13.5047
v 482.313 288.893 4.41065
vt 18.9887 11.3738
v 505.75 248.299 4.41065
vt 19.9114 9.77553
v 517.469 228.001 4.41065
vt 20.3728 8.97642
v 529.188 207.704 4.41065
vt 20.8342 8.17731
v 540.907 187.406 4.41065
vt 21.2955 7.37819
v 552.625 167.109 4.41065
vt 21.7569 6.57908
v 576.063 126.514 4.41065
vt 22.6796 4.98086
v 622.938 99.4504 4.41065
vt 24.5251 3.91537
v 669.813 99.4504 4.41065
vt 26.3706 3.91537
v 693.25 99.4504 4.41065
vt 27.2933 3.91537
v 716.688 99.4504 4.41065
vt 28.2161 3.91537
v 740.125 99.4504 4.41065
vt 29.1388 3.91537
v 763.563 99.4504 4.41065
vt 30.0615 3.91537
v 810.438 99.4504 4.41065
vt 31.907 3.91537
f 139/247/66 140/248/66 141/249/66 142/250/66 143/251/66 144/252/66 145/253/66 146/254/66 147/255/66 148/228/66 149/227/66 134/226/66 133/207/66 135/120/66 136/107/66 138/106/66 150/92/66 151/91/66 152/45/66 153/28/66 154/15/66 155/21/66 156/256/66 157/257/66 158/258/66 159/259/66 160/260/66 161/261/66 162/262/66 163/263/66 164/264/66 165/265/66 166/266/66 167/267/66 168/268/66 169/269/66 170/270/66 171/271/66 172/272/66 173/273/66 174/274/66 175/275/66 

v 857.313 126.514 9.41065
vt 0.370498 21.1898
vn -0.866025 0.5 2.27882e-14
v 880.75 167.109 9.41065
vt 0.370498 23.0353
vt 0.173648 23.0353
vt 0.173648 21.1898
f 176/276/67 177/277/67 140/278/67 139/279/67 

vn -0.866025 0.5 -2.71098e-14
v 857.313 126.514 14.4106
vt 0.567348 21.1898
v 880.75 167.109 14.4106
vt 0.567348 23.0353
f 176/276/68 178/280/68 179/281/68 177/277/68 

v 927.625 85.9188 9.41065
vt -0.370498 -29.9365
vn 0.5 0.866025 -1.35675e-13
vt -0.370498 -26.7401
vt -0.567348 -26.7401
v 927.625 85.9188 14.4106
vt -0.567348 -29.9365
f 180/282/69 176/283/69 178/284/69 181/285/69 

v 810.438 99.4504 24.4106
vt 0.961049 29.59
vn -0.5 0.866025 4.66667e-14
v 857.313 126.514 24.4106
vt 0.961049 31.7209
vt 0.567348 31.7209
vt 0.370498 31.7209
v 810.438 99.4504 9.41065
vt 0.370498 29.59
v 810.438 99.4504 14.4106
vt 0.567348 29.59
f 182/286/70 183/287/70 178/288/70 176/289/70 184/290/70 185/291/70 

vn -1.50122e-15 7.95353e-16 1
v 810.438 18.2605 24.4106
vt 31.907 0.718919
v 810.438 -8.80275 24.4106
vt 31.907 -0.346565
v 904.188 -8.80275 24.4106
vt 35.5979 -0.346565
v 951.063 72.3871 24.4106
vt 37.4434 2.84989
f 182/275/71 186/292/71 187/293/71 188/294/71 189/295/71 183/247/71 

vt 0.961049 0.718919
vn -1 -1.11146e-14 -1.26334e-13
vt 0.961049 3.91537
vt 0.567348 3.91537
v 810.438 18.2605 14.4106
vt 0.567348 0.718919
f 186/296/72 182/297/72 185/298/72 190/299/72 

vn -1 -1.11146e-14 2.52669e-13
vt 0.370498 3.91537
v 810.438 18.2605 9.41065
vt 0.370498 0.718919
f 185/298/73 184/300/73 191/301/73 190/299/73 

v 763.563 99.4504 9.41065
vn 5.48653e-14 1 -8.03126e-13
v 763.563 99.4504 14.4106
vt 30.0615 -0.567348
vt 31.907 -0.567348
vt 31.907 -0.370498
f 192/102/74 193/302/74 185/303/74 184/304/74 

v 763.563 23.2605 14.4106
vt 0.567348 0.91577
vn -1 2.36879e-14 1.7303e-30
v 763.563 23.2605 9.41065
vt 0.370498 0.91577
f 194/305/75 193/298/75 192/300/75 195/306/75 

vt 30.0615 0.91577
vn -2.21382e-15 -1.39451e-15 1
v 763.563 18.2605 14.4106
vt 30.0615 0.718919
f 194/307/76 196/308/76 190/292/76 185/275/76 193/274/76 

v 763.563 18.2605 -20.5894
vt -0.810604 0.718919
vn -1 -2.16573e-13 -2.757e-27
v 763.563 23.2605 -20.5894
vt -0.810604 0.91577
f 197/309/77 196/299/77 194/305/77 195/306/77 198/310/77 

vn -1.50595e-13 -1 -1.3946e-14
v 763.563 18.2605 -25.5894
v 810.438 18.2605 -25.5894
v 810.438 18.2605 -20.5894
f 191/110/78 190/111/78 196/112/78 197/63/78 199/64/78 200/65/78 201/66/78 

vt 0.961049 -0.346565
vn -1 -3.47229e-15 -2.35036e-14
vt -1.00745 0.718919
v 810.438 99.4504 -25.5894
vt -1.00745 3.91537
v 810.438 99.4504 -35.5894
vt -1.40116 3.91537
v 810.438 -8.80275 -35.5894
vt -1.40116 -0.346565
f 187/311/79 186/296/79 190/299/79 191/301/79 201/309/79 200/312/79 202/313/79 203/314/79 204/315/79 

vn -1 -4.44582e-15 7.21911e-14
v 810.438 99.4504 -20.5894
vt -0.810604 3.91537
f 201/309/80 205/316/80 202/313/80 200/312/80 

vt 31.907 0.810604
vn -1.80561e-14 1 3.40401e-13
vt 31.907 1.00745
v 763.563 99.4504 -25.5894
vt 30.0615 1.00745
v 763.563 99.4504 -20.5894
v 740.125 99.4504 -20.5894
v 740.125 99.4504 -25.5894
v 716.688 99.4504 -25.5894
vt 28.2161 1.00745
v 693.25 99.4504 -25.5894
v 693.25 99.4504 -20.5894
v 669.813 99.4504 -20.5894
v 669.813 99.4504 -25.5894
v 622.938 99.4504 -25.5894
v 622.938 99.4504 -20.5894
v 622.938 99.4504 -15.5894
vt 24.5251 0.613754
v 716.688 99.4504 -15.5894
vt 28.2161 0.613754
v 810.438 99.4504 -15.5894
vt 31.907 0.613754
f 205/317/81 202/318/81 206/319/81 207/103/81 208/99/81 209/100/81 210/320/81 211/95/81 212/43/81 213/33/81 214/34/81 215/35/81 216/36/81 217/321/81 218/322/81 219/323/81 

v 857.313 126.514 -20.5894
vt -0.810604 31.7209
vn -0.5 0.866025 4.7004e-15
v 857.313 126.514 -25.5894
vt -1.00745 31.7209
v 857.313 126.514 -35.5894
vt -1.40116 31.7209
vt -1.40116 29.59
vt -1.00745 29.59
vt -0.810604 29.59
vt -0.613754 29.59
v 857.313 126.514 -15.5894
vt -0.613754 31.7209
f 220/324/82 221/325/82 222/326/82 203/327/82 202/328/82 205/329/82 219/330/82 223/331/82 

vt -0.810604 21.1898
vn -0.866025 0.5 -2.00067e-14
vt -0.613754 21.1898
v 904.188 207.704 -15.5894
vt -0.613754 24.8807
v 951.063 288.893 -15.5894
vt -0.613754 28.5717
v 951.063 288.893 -20.5894
vt -0.810604 28.5717
v 951.063 288.893 -25.5894
vt -1.00745 28.5717
v 927.625 248.299 -25.5894
vt -1.00745 26.7262
v 927.625 248.299 -20.5894
vt -0.810604 26.7262
v 915.907 228.001 -20.5894
vt -0.810604 25.8035
v 915.907 228.001 -25.5894
vt -1.00745 25.8035
v 904.188 207.704 -25.5894
vt -1.00745 24.8807
v 892.469 187.406 -25.5894
vt -1.00745 23.958
v 892.469 187.406 -20.5894
vt -0.810604 23.958
v 880.75 167.109 -20.5894
vt -0.810604 23.0353
v 880.75 167.109 -25.5894
vt -1.00745 23.0353
vt -1.00745 21.1898
f 220/332/83 223/333/83 224/334/83 225/335/83 226/336/83 227/337/83 228/338/83 229/339/83 230/340/83 231/341/83 232/342/83 233/343/83 234/344/83 235/345/83 236/346/83 221/347/83 

vn -1.0695e-15 3.08738e-16 -1
vt -28.2161 20.9631
vt -35.5979 16.7012
vt -37.4434 13.5047
vt -37.4434 11.3738
vt -35.5979 8.17731
vt -33.7525 4.98086
vt -31.907 3.91537
vt -28.2161 3.91537
vt -24.5251 3.91537
v 576.063 126.514 -15.5894
vt -22.6796 4.98086
v 529.188 207.704 -15.5894
vt -20.8342 8.17731
v 482.313 288.893 -15.5894
vt -18.9887 11.3738
v 482.313 343.02 -15.5894
vt -18.9887 13.5047
v 529.188 424.21 -15.5894
vt -20.8342 16.7012
v 576.063 505.4 -15.5894
vt -22.6796 19.8976
f 48/77/84 47/348/84 46/136/84 93/140/84 105/349/84 104/350/84 225/351/84 224/352/84 223/353/84 219/354/84 218/355/84 217/356/84 237/357/84 238/358/84 239/359/84 240/360/84 241/361/84 242/362/84 

vt -0.810604 13.5047
vn -1 -1.16703e-14 7.21911e-15
vt -1.00745 13.5047
v 951.063 343.02 -35.5894
vt -1.40116 13.5047
v 951.063 288.893 -35.5894
vt -1.40116 11.3738
vt -1.00745 11.3738
vt -0.810604 11.3738
vt -0.613754 11.3738
vt -0.613754 13.5047
f 103/363/85 102/364/85 243/365/85 244/366/85 227/367/85 226/368/85 225/369/85 104/370/85 

v 1021.38 383.615 -25.5894
vn -0.5 0.866025 -2.27192e-13
v 1021.38 383.615 -20.5894
f 245/190/86 102/187/86 103/188/86 246/189/86 

v 997.938 424.21 -25.5894
vt -39.2889 16.7012
vn 3.85019e-15 -6.66873e-15 -1
vt -40.2116 15.103
vt -36.5207 15.103
f 247/371/87 245/372/87 102/350/87 101/373/87 

v 1021.38 383.615 9.41065
vt -0.370498 -7.02627
vn 0.866025 0.5 1.785e-14
v 1021.38 383.615 -5.58935
vt 0.220053 -7.02627
vt 0.810604 -7.02627
vt 1.00745 -7.02627
vt 1.00745 -5.1808
v 997.938 424.21 -20.5894
vt 0.810604 -5.1808
v 997.938 424.21 14.4106
vt -0.567348 -5.1808
v 1021.38 383.615 14.4106
vt -0.567348 -7.02627
f 248/374/88 249/375/88 246/376/88 245/377/88 247/378/88 250/379/88 251/380/88 252/381/88 

v 1021.38 383.615 24.4106
vt 0.961049 42.3758
vn -0.5 0.866025 1.77147e-13
v 1044.81 397.147 24.4106
vt 0.961049 43.4413
v 1044.81 397.147 -5.58935
vt -0.220053 43.4413
vt -0.220053 42.3758
vt 0.370498 42.3758
vt 0.567348 42.3758
f 253/382/89 254/383/89 255/384/89 249/385/89 248/386/89 252/387/89 

v 951.063 288.893 24.4106
vn -1.90604e-16 -1.02596e-16 1
v 1021.38 248.299 24.4106
vt 40.2116 9.77553
v 1044.81 234.767 24.4106
vt 41.1344 9.24279
v 1091.69 315.957 24.4106
vt 42.9798 12.4392
vt 41.1344 15.6357
vt 40.2116 15.103
v 951.063 343.02 24.4106
f 256/253/90 257/388/90 258/389/90 259/390/90 254/391/90 253/392/90 260/254/90 

v 1021.38 248.299 14.4106
vt 0.567348 -29.9365
vn -0.5 -0.866025 -1.05512e-13
vt 0.961049 -29.9365
vt 0.961049 -26.7401
v 951.063 288.893 14.4106
vt 0.567348 -26.7401
f 261/393/91 257/394/91 256/395/91 262/396/91 

vn -0.5 -0.866025 -1.64247e-14
v 1021.38 248.299 9.41065
vt 0.370498 -29.9365
v 1021.38 248.299 -20.5894
vt -0.810604 -29.9365
v 1021.38 248.299 -25.5894
vt -1.00745 -29.9365
vt -1.00745 -26.7401
vt -1.40116 -26.7401
v 1044.81 234.767 -35.5894
vt -1.40116 -31.002
vt 0.961049 -31.002
f 261/393/92 263/397/92 264/398/92 265/399/92 227/400/92 244/401/92 266/402/92 258/403/92 257/394/92 

vn -0.5 -0.866025 3.29573e-13
v 951.063 288.893 9.41065
vt 0.370498 -26.7401
f 262/396/93 267/404/93 263/397/93 261/393/93 

v 927.625 248.299 9.41065
vt 0.370498 26.7262
vn -0.866025 0.5 2.18828e-13
v 927.625 248.299 14.4106
vt 0.567348 26.7262
vt 0.567348 28.5717
vt 0.370498 28.5717
f 268/405/94 269/406/94 262/407/94 267/408/94 

v 993.608 210.204 14.4106
vt 0.567348 -29.7397
vn -0.5 -0.866025 1.59816e-16
v 993.608 210.204 9.41065
vt 0.370498 -29.7397
f 270/409/95 269/396/95 268/404/95 271/410/95 

vt 39.1184 8.27573
vn 8.97316e-17 3.85357e-15 1
v 997.938 207.704 14.4106
vt 39.2889 8.17731
f 270/411/96 272/412/96 261/388/96 262/253/96 269/252/96 

v 997.938 207.704 -20.5894
vn -0.5 -0.866025 7.62134e-15
v 993.608 210.204 -20.5894
vt -0.810604 -29.7397
f 273/398/97 272/393/97 270/409/97 271/410/97 274/413/97 

vn 0.866025 -0.5 -8.61553e-15
vt 0.810604 26.7262
v 997.938 207.704 -25.5894
vt 1.00745 26.7262
vt 1.00745 28.5717
vt 0.810604 28.5717
f 272/7/98 273/414/98 275/415/98 265/416/98 264/417/98 263/5/98 261/6/98 

vn -0.5 -0.866025 -1.57859e-14
vt -0.810604 -26.7401
f 274/413/99 229/418/99 228/400/99 275/399/99 273/398/99 

vt -36.0593 8.97642
vn 1.11565e-14 -1.99541e-15 -1
vt -36.5207 9.77553
vt -39.1184 8.27573
v 981.889 189.906 -20.5894
vt -38.657 7.47662
f 230/419/100 229/420/100 274/421/100 276/422/100 

v 981.889 189.906 9.41065
vt -0.370498 25.8035
vn 0.866025 -0.5 -3.71071e-15
vt 0.810604 25.8035
f 277/423/101 276/424/101 274/414/101 271/8/101 

v 999.209 179.906 14.4106
vt -0.567348 -30.5271
vn 0.5 0.866025 -2.54698e-15
v 999.209 179.906 -20.5894
vt 0.810604 -30.5271
vt 0.810604 -29.7397
vt -0.370498 -29.7397
v 981.889 189.906 14.4106
vt -0.567348 -29.7397
f 278/425/102 279/426/102 276/427/102 277/428/102 280/429/102 

v 975.772 139.311 -20.5894
vt 0.810604 23.958
vn 0.866025 -0.5 1.41369e-15
v 975.772 139.311 -25.5894
vt 1.00745 23.958
v 999.209 179.906 -25.5894
vt 1.00745 25.8035
vt -0.567348 25.8035
v 975.772 139.311 14.4106
vt -0.567348 23.958
f 281/430/103 282/431/103 283/432/103 279/424/103 278/433/103 284/434/103 

v 958.451 149.311 -20.5894
vn -0.5 -0.866025 -3.46813e-15
vt -1.00745 -30.5271
vt -0.810604 -30.5271
f 285/413/104 234/418/104 233/400/104 282/435/104 281/436/104 

v 946.733 129.014 -20.5894
vt -37.2729 5.07928
vn 2.05143e-15 -1.1844e-15 -1
vt -34.6752 6.57908
vt -35.1366 7.37819
vt -37.7343 5.87839
f 286/437/105 235/438/105 234/439/105 285/440/105 

vn 0.5 0.866025 -1.48292e-14
v 951.063 126.514 -20.5894
vt 0.810604 -29.9365
v 951.063 126.514 -25.5894
vt 1.00745 -29.9365
vt 1.00745 -26.7401
vt 0.810604 -26.7401
f 286/427/106 287/441/106 288/442/106 236/443/106 235/444/106 

v 951.063 126.514 14.4106
vn 0.5 0.866025 -4.80385e-15
v 946.733 129.014 9.41065
v 946.733 129.014 14.4106
f 289/285/107 287/441/107 286/427/107 290/428/107 291/429/107 

vt -0.567348 23.0353
vn 0.866025 -0.5 2.76753e-14
vt -0.567348 21.1898
vt -0.370498 21.1898
v 927.625 85.9188 -20.5894
vt 0.810604 21.1898
v 927.625 85.9188 -25.5894
vt 1.00745 21.1898
vt 1.00745 23.0353
vt 0.810604 23.0353
f 289/445/108 181/446/108 180/447/108 292/448/108 293/449/108 288/450/108 287/451/108 

vn 1.32557e-15 7.38862e-15 1
vt 36.5207 3.38263
vt 37.4434 4.98086
vt 37.2729 5.07928
f 179/248/109 178/247/109 181/452/109 289/453/109 291/454/109 

vn 0.5 0.866025 1.61269e-14
vt -0.961049 -26.7401
vt -0.961049 -31.002
v 951.063 72.3871 -35.5894
vt 1.40116 -31.002
vt 1.40116 -26.7401
f 178/284/110 183/455/110 189/456/110 294/457/110 222/458/110 221/443/110 293/442/110 292/441/110 180/282/110 181/285/110 

v 904.188 -8.80275 -35.5894
vt 1.40116 17.4988
vn 0.866025 -0.5 2.23837e-15
vt 1.40116 21.1898
vt -0.961049 21.1898
vt -0.961049 17.4988
f 295/459/111 294/460/111 189/461/111 188/462/111 

vn 8.76989e-16 2.48225e-15 -1
vt -37.4434 2.84989
vt -35.5979 -0.346565
vt -31.907 -0.346565
f 222/353/112 294/463/112 295/464/112 204/465/112 203/354/112 

vt -31.907 -0.961049
vn -9.62549e-16 -1 -2.19175e-29
vt -31.907 1.40116
vt -35.5979 1.40116
vt -35.5979 -0.961049
f 187/466/113 204/467/113 295/468/113 188/469/113 

vt -37.4434 4.98086
vn -4.20753e-29 -8.89164e-15 -1
vt -36.5207 3.38263
f 288/470/114 293/471/114 221/353/114 236/438/114 

vn 0.5 0.866025 2.72664e-13
f 221/443/115 220/444/115 292/441/115 293/442/115 

vn 0.5 0.866025 -3.91913e-14
f 291/429/116 290/428/116 177/283/116 179/284/116 

v 892.469 187.406 9.41065
vn 3.85019e-15 6.66873e-15 1
v 958.451 149.311 9.41065
vt 37.7343 5.87839
f 296/249/117 177/248/117 290/454/117 297/472/117 

vt 0.173648 23.958
vn -0.866025 0.5 9.00765e-15
vt 0.370498 23.958
f 141/473/118 140/278/118 177/277/118 296/474/118 

vn -0.866025 0.5 8.14941e-14
v 904.188 207.704 9.41065
vt 0.370498 24.8807
vt 0.173648 24.8807
f 296/474/119 298/475/119 142/476/119 141/473/119 

vn -0.866025 0.5 -6.80028e-14
v 892.469 187.406 14.4106
vt 0.567348 23.958
v 904.188 207.704 14.4106
vt 0.567348 24.8807
f 296/474/120 299/477/120 300/478/120 298/475/120 

v 958.451 149.311 14.4106
vn -0.5 -0.866025 7.24539e-15
f 301/409/121 299/396/121 296/404/121 297/410/121 

vn -2.71404e-15 -2.87887e-15 1
vt 38.4162 5.48469
vt 39.339 7.08292
vt 38.657 7.47662
v 915.907 228.001 14.4106
f 301/472/122 284/479/122 278/480/122 280/481/122 302/251/122 300/250/122 299/249/122 

vn -0.5 -0.866025 4.70453e-17
vt 0.567348 -30.5271
f 281/436/123 284/482/123 301/409/123 297/410/123 285/413/123 

vt -0.370498 23.0353
vn 0.866025 -0.5 2.97264e-15
vt -0.370498 23.958
f 290/483/124 286/451/124 285/430/124 297/484/124 

vn 0.5 0.866025 -7.8272e-15
v 915.907 228.001 9.41065
f 302/284/125 280/429/125 277/428/125 303/283/125 

vn -3.85019e-15 -6.66873e-15 1
f 277/481/126 271/411/126 268/252/126 303/251/126 

vt 0.173648 26.7262
vn -0.866025 0.5 -9.00765e-15
vt 0.173648 25.8035
vt 0.370498 25.8035
f 144/485/127 143/486/127 303/487/127 268/405/127 

vn -0.866025 0.5 8.15788e-14
f 298/475/128 303/487/128 143/486/128 142/476/128 

vn -0.866025 0.5 -8.15978e-14
vt 0.567348 25.8035
f 298/475/129 300/478/129 302/488/129 303/487/129 

vn -0.866025 0.5 -2.27909e-13
vt 0.173648 28.5717
f 268/405/130 267/408/130 145/489/130 144/485/130 

vt 0.370498 11.3738
vn -1 2.33406e-14 -2.52669e-13
v 951.063 343.02 9.41065
vt 0.370498 13.5047
vt 0.173648 13.5047
vt 0.173648 11.3738
f 267/490/131 304/491/131 146/492/131 145/493/131 

vn -5.77529e-15 -1.00031e-14 1
v 966.688 315.957 9.41065
vt 38.0586 12.4392
f 267/253/132 305/494/132 304/254/132

vt 0.961049 11.3738
vn -1 2.22291e-15 8.76607e-14
vt 0.961049 13.5047
v 951.063 343.02 14.4106
vt 0.567348 13.5047
vt 0.567348 11.3738
f 256/495/133 260/496/133 306/497/133 304/491/133 267/490/133 262/498/133 

vn -0.5 0.866025 -1.30429e-13
vt 0.961049 39.1793
f 306/237/134 260/499/134 253/382/134 252/387/134 

v 927.625 383.615 14.4106
vn -1.9251e-15 3.33437e-15 1
vt 39.2889 16.7012
v 993.608 421.71 14.4106
vt 39.1184 16.6028
f 307/255/135 306/254/135 252/392/135 251/500/135 308/501/135 

vt 0.370498 -7.02627
vn -0.866025 -0.5 -1.8779e-13
vt 0.567348 -7.02627
vt 0.567348 -5.1808
v 927.625 383.615 9.41065
vt 0.370498 -5.1808
f 304/502/136 306/503/136 307/504/136 309/505/136 

vn -0.5 0.866025 2.22247e-13
f 248/386/137 304/238/137 306/237/137 252/387/137 

vn -0.5 0.866025 1.52709e-14
v 993.608 421.71 9.41065
f 308/214/138 310/213/138 309/238/138 307/237/138 

vn -0.5 0.866025 -8.78179e-15
v 993.608 421.71 -20.5894
f 250/189/139 311/212/139 310/213/139 308/214/139 251/387/139 

vn -0.5 0.866025 6.23067e-14
f 311/212/140 250/189/140 247/190/140 101/187/140 100/188/140 

vt -39.1184 16.6028
vn 7.05368e-15 -3.73378e-16 -1
vt -36.0593 15.9021
vt -38.657 17.4019
f 311/506/141 100/373/141 99/507/141 129/508/141 

vn 0.5 -0.866025 -1.59653e-13
vt 1.00745 42.9663
f 129/183/142 99/184/142 98/135/142 123/509/142 122/229/142 

vt -38.4162 19.3938
vn 3.52934e-15 -1.85243e-16 -1
vt -39.339 17.7956
f 120/510/143 123/511/143 98/507/143 97/349/143 96/179/143 

vt -0.370498 -5.1808
vn 0.866025 0.5 2.23423e-14
vt -0.370498 -4.25806
f 310/512/144 311/379/144 129/219/144 128/513/144 

vn -1.09039e-14 7.04211e-15 1
f 130/228/145 309/255/145 310/501/145 128/222/145 

vn -0.866025 -0.5 9.0218e-15
vt 0.173648 -4.25806
vt 0.173648 -5.1808
f 309/505/146 130/231/146 148/514/146 147/515/146 

vn -0.866025 -0.5 3.61434e-14
vt 0.173648 -3.33533
f 131/234/147 149/516/147 148/514/147 130/231/147 

vn -0.866025 -0.5 1.80479e-14
f 132/236/148 134/240/148 149/516/148 131/234/148 

vn -0.866025 -0.5 -8.80798e-15
vt 0.173648 -7.02627
f 309/505/149 147/515/149 146/517/149 304/502/149 

vt -39.339 7.08292
vn 3.2085e-16 -4.63106e-15 -1
vt -38.4162 5.48469
f 283/518/150 282/519/150 233/439/150 232/352/150 231/419/150 

vn 0.5 0.866025 4.19763e-14
vt 1.00745 -30.5271
f 276/427/151 279/426/151 283/520/151 231/443/151 230/444/151 

vn 7.70039e-15 -6.66873e-15 -1
vt -40.2116 9.77553
vt -39.2889 8.17731
f 228/420/152 227/351/152 265/521/152 275/522/152 

vn 0.5 0.866025 1.63893e-13
f 226/444/153 264/441/153 265/442/153 227/443/153 

vn 3.63629e-15 6.66873e-16 -1
v 1044.81 397.147 -35.5894
vt -41.1344 15.6357
v 1091.69 315.957 -35.5894
vt -42.9798 12.4392
vt -41.1344 9.24279
f 243/350/154 312/523/154 313/524/154 266/525/154 244/351/154 

vn -0.5 0.866025 -1.79444e-13
vt -1.40116 43.4413
vt -1.40116 39.1793
f 245/190/155 246/189/155 249/385/155 255/384/155 312/526/155 243/527/155 102/187/155 

vt 1.40116 -10.7172
vn 0.866025 0.5 -4.50685e-15
vt 1.40116 -7.02627
vt -0.961049 -7.02627
vt -0.961049 -10.7172
f 313/528/156 312/529/156 255/375/156 254/530/156 259/531/156 

vt 1.40116 28.5717
vn 0.866025 -0.5 -6.73877e-15
vt 1.40116 32.2626
vt -0.961049 32.2626
vt -0.961049 28.5717
f 266/532/157 313/533/157 259/534/157 258/535/157 

vt 0.810604 -19.2817
vn 0.5 0.866025 9.32498e-15
vt 1.00745 -19.2817
v 622.938 99.4504 -35.5894
vt 1.40116 -19.2817
v 576.063 126.514 -35.5894
vt 1.40116 -17.1507
v 576.063 126.514 -25.5894
vt 1.00745 -17.1507
v 576.063 126.514 -20.5894
vt 0.810604 -17.1507
vt 0.613754 -17.1507
vt 0.613754 -19.2817
f 216/536/158 215/537/158 314/538/158 315/539/158 316/540/158 317/541/158 237/542/158 217/543/158 

v 622.938 18.2605 -25.5894
vt 1.00745 0.718919
vn 1 2.22291e-15 -1.80478e-13
vt 1.00745 3.91537
vt 0.810604 3.91537
v 622.938 18.2605 -20.5894
vt 0.810604 0.718919
f 318/544/159 215/545/159 216/546/159 319/547/159 

v 622.938 18.2605 14.4106
vt -0.567348 0.718919
vn 1 1.42901e-15 2.49155e-14
v 622.938 99.4504 14.4106
vt -0.567348 3.91537
v 622.938 99.4504 24.4106
vt -0.961049 3.91537
v 622.938 -8.80275 24.4106
vt -0.961049 -0.346565
v 622.938 -8.80275 -35.5894
vt 1.40116 -0.346565
vt 1.40116 3.91537
v 622.938 18.2605 9.41065
vt -0.370498 0.718919
f 320/548/160 321/549/160 322/550/160 323/551/160 324/552/160 314/553/160 215/545/160 318/544/160 319/547/160 325/554/160 

vn 1 -6.66873e-15 2.52669e-13
v 622.938 99.4504 9.41065
vt -0.370498 3.91537
f 325/554/161 326/555/161 321/549/161 320/548/161 

v 576.063 126.514 24.4106
vt -0.961049 -17.1507
vn 0.5 0.866025 -1.70438e-14
vt -0.961049 -19.2817
vt -0.567348 -19.2817
vt -0.370498 -19.2817
v 576.063 126.514 9.41065
vt -0.370498 -17.1507
v 576.063 126.514 14.4106
vt -0.567348 -17.1507
f 327/556/162 322/557/162 321/558/162 326/559/162 328/560/162 329/561/162 

v 505.75 85.9188 24.4106
vt 19.9114 3.38263
vn -2.57857e-16 9.85015e-16 1
v 482.313 72.3871 24.4106
vt 18.9887 2.84989
v 529.188 -8.80275 24.4106
vt 20.8342 -0.346565
vt 24.5251 -0.346565
f 330/562/163 331/563/163 332/564/163 323/565/163 322/269/163 327/268/163 

v 505.75 85.9188 -20.5894
vt -0.810604 18.9351
vn -0.5 0.866025 -1.82912e-14
v 505.75 85.9188 -25.5894
vt -1.00745 18.9351
vt -1.00745 22.1316
vt -1.40116 22.1316
v 482.313 72.3871 -35.5894
vt -1.40116 17.8696
vt 0.961049 17.8696
vt 0.961049 18.9351
v 505.75 85.9188 14.4106
vt 0.567348 18.9351
v 505.75 85.9188 9.41065
vt 0.370498 18.9351
f 333/566/164 334/567/164 316/568/164 315/569/164 335/570/164 331/571/164 330/572/164 336/573/164 337/574/164 

v 482.313 126.514 9.41065
vn -0.866025 -0.5 -8.54374e-15
v 482.313 126.514 -20.5894
v 482.313 126.514 -25.5894
v 482.313 126.514 14.4106
f 338/505/165 339/169/165 340/170/165 334/171/165 333/172/165 337/502/165 336/503/165 341/504/165 

vn -0.5 0.866025 -2.68557e-14
v 486.643 129.014 9.41065
vt 0.370498 19.132
v 486.643 129.014 -20.5894
vt -0.810604 19.132
f 339/566/166 338/574/166 342/575/166 343/576/166 

vn -0.5 0.866025 -7.83348e-15
v 486.643 129.014 14.4106
vt 0.567348 19.132
f 338/574/167 341/573/167 344/577/167 342/575/167 

vt 19.1592 5.07928
vt 18.9887 4.98086
v 552.625 167.109 14.4106
f 344/578/64 341/579/64 336/562/64 329/268/64 345/267/64 

vt 0.567348 22.1316
vn -0.5 0.866025 1.08537e-12
vt 0.370498 22.1316
f 329/580/168 328/581/168 337/574/168 336/573/168 

v 552.625 167.109 9.41065
vn 0.866025 0.5 -3.59472e-14
f 346/512/169 345/380/169 329/381/169 328/374/169 

vn -0.5 0.866025 -1.55462e-14
f 344/577/170 345/580/170 346/581/170 342/575/170 

v 474.924 149.311 9.41065
vt 18.6978 5.87839
vn 8.99381e-16 -3.92656e-15 1
v 540.907 187.406 9.41065
f 347/582/171 342/578/171 346/267/171 348/266/171 

vn -0.866025 -0.5 1.35376e-14
v 474.924 149.311 -20.5894
f 343/169/172 342/505/172 347/231/172 349/168/172 

v 457.604 139.311 9.41065
vt -0.370498 18.3446
vn 0.5 -0.866025 -1.51324e-14
v 457.604 139.311 -20.5894
vt 0.810604 18.3446
vt 0.810604 19.132
vt -0.370498 19.132
f 350/583/173 351/584/173 349/585/173 347/586/173 

vn -0.866025 -0.5 1.54871e-14
v 457.604 139.311 14.4106
v 434.166 179.906 14.4106
v 434.166 179.906 9.41065
v 434.166 179.906 -20.5894
v 434.166 179.906 -25.5894
v 457.604 139.311 -25.5894
f 351/168/174 350/231/174 352/232/174 353/235/174 354/236/174 355/164/174 356/165/174 357/167/174 

vn 0.5 -0.866025 7.83403e-15
v 474.924 149.311 14.4106
vt -0.567348 19.132
vt -0.567348 18.3446
f 347/586/175 358/587/175 352/588/175 350/583/175 

v 540.907 187.406 14.4106
vt -0.567348 22.1316
vn 0.5 -0.866025 4.69971e-16
vt -0.370498 22.1316
f 359/589/176 358/587/176 347/586/176 348/590/176 

v 451.487 189.906 14.4106
vt 17.7751 7.47662
vn 7.5281e-16 1.91658e-15 1
vt 17.0932 7.08292
vt 18.0159 5.48469
v 529.188 207.704 14.4106
v 517.469 228.001 14.4106
f 360/591/177 353/592/177 352/593/177 358/582/177 359/266/177 361/265/177 362/264/177 

vt 0.370498 18.3446
vn -0.5 0.866025 -3.79664e-14
vt 0.567348 18.3446
v 451.487 189.906 9.41065
f 354/594/178 353/595/178 360/577/178 363/575/178 

vn -0.5 0.866025 -1.21313e-16
v 517.469 228.001 9.41065
f 360/577/179 362/580/179 364/581/179 363/575/179 

vn 0.866025 0.5 2.13305e-14
vt -0.567348 -3.33533
v 529.188 207.704 9.41065
vt -0.370498 -3.33533
f 364/208/180 362/217/180 361/596/180 365/597/180 

vn 0.866025 0.5 2.12736e-14
f 365/597/181 361/596/181 359/218/181 348/513/181 

vt -0.173648 -4.25806
vn 0.866025 0.5 1.35853e-14
vt -0.173648 -3.33533
f 166/598/182 165/599/182 365/597/182 348/513/182 

vn 0.866025 0.5 -3.04431e-17
vt -0.173648 -2.41259
f 364/208/183 365/597/183 165/599/183 164/600/183 

vn 0.866025 0.5 4.22617e-17
vt -0.173648 -1.48985
v 505.75 248.299 9.41065
f 164/600/184 163/601/184 366/210/184 364/208/184 

vn 0.866025 0.5 4.7872e-15
vt -0.173648 0.355618
v 482.313 288.893 9.41065
f 163/601/185 162/602/185 367/191/185 366/210/185 

v 482.313 343.02 9.41065
vt -0.370498 13.5047
vn 1 0 -0
vt -0.370498 11.3738
vt -0.173648 11.3738
vt -0.173648 13.5047
f 368/603/186 367/604/186 162/605/186 161/606/186 

v 482.313 343.02 24.4106
vt -0.961049 13.5047
vn 1 -6.66873e-15 -7.73477e-15
v 482.313 288.893 24.4106
vt -0.961049 11.3738
v 482.313 288.893 14.4106
vt -0.567348 11.3738
v 482.313 343.02 14.4106
vt -0.567348 13.5047
f 369/607/187 370/608/187 371/609/187 367/604/187 368/603/187 372/610/187 

vn 3.2085e-16 -1.00031e-15 1
v 388.563 397.147 24.4106
vt 15.2977 15.6357
v 341.688 315.957 24.4106
vt 13.4523 12.4392
v 388.563 234.767 24.4106
vt 15.2977 9.24279
f 370/262/188 369/261/188 373/611/188 374/612/188 375/613/188 

vt -0.567348 -9.69233
vn 0.5 0.866025 3.13564e-15
v 412 383.615 14.4106
vt -0.567348 -6.49587
v 412 383.615 9.41065
vt -0.370498 -6.49587
v 412 383.615 -20.5894
vt 0.810604 -6.49587
v 412 383.615 -25.5894
vt 1.00745 -6.49587
v 482.313 343.02 -25.5894
vt 1.00745 -9.69233
v 482.313 343.02 -35.5894
vt 1.40116 -9.69233
v 388.563 397.147 -35.5894
vt 1.40116 -5.43039
vt -0.961049 -5.43039
vt -0.961049 -9.69233
f 372/614/189 376/615/189 377/616/189 378/617/189 379/618/189 380/619/189 381/620/189 382/621/189 373/622/189 369/623/189 

v 439.768 421.71 14.4106
vt 17.3137 16.6028
vn -1.9251e-15 -3.33437e-15 1
v 435.438 424.21 14.4106
vt 17.1432 16.7012
vt 16.2205 15.103
v 505.75 383.615 14.4106
f 383/624/190 384/625/190 376/626/190 372/261/190 385/260/190 

v 435.438 424.21 9.41065
vn 0.5 0.866025 1.80407e-14
vt -0.567348 -6.69273
v 439.768 421.71 9.41065
vt -0.370498 -6.69273
f 386/616/191 384/615/191 383/627/191 387/628/191 

vn -0.866025 0.5 -1.24155e-14
v 435.438 424.21 -20.5894
v 435.438 424.21 -25.5894
f 386/277/192 388/345/192 389/346/192 379/347/192 378/332/192 377/276/192 376/280/192 384/281/192 

vn 0.5 0.866025 2.15385e-18
v 439.768 421.71 -20.5894
vt 0.810604 -6.69273
f 388/617/193 386/616/193 387/628/193 390/629/193 

vn -0.866025 0.5 8.89763e-15
v 451.487 442.007 9.41065
v 451.487 442.007 -20.5894
f 390/345/194 387/277/194 391/474/194 392/344/194 

v 505.75 383.615 9.41065
vn 6.80101e-15 9.4109e-15 1
v 517.469 403.912 9.41065
vt 17.7751 17.4019
f 393/260/195 394/259/195 391/630/195 387/624/195 

vn 0.866025 -0.5 -0
vt -0.173648 23.0353
vt -0.173648 23.958
f 394/484/196 393/483/196 160/631/196 159/632/196 

vn 0.866025 -0.5 -9.66782e-18
vt -0.173648 21.1898
f 393/483/197 368/447/197 161/633/197 160/631/197 

vn 0.866025 -0.5 -1.3515e-13
f 393/483/198 385/445/198 372/446/198 368/447/198 

vn 0.5 0.866025 -1.98319e-16
vt -0.370498 -9.69233
f 383/627/199 385/614/199 393/634/199 387/628/199 

vn 0.5 0.866025 4.83207e-13
f 372/614/200 368/634/200 377/616/200 376/615/200 

v 529.188 424.21 9.41065
vt -0.370498 24.8807
vn 0.866025 -0.5 1.80364e-14
vt -0.173648 24.8807
f 395/635/201 394/484/201 159/632/201 158/636/201 

vn 0.866025 -0.5 4.38604e-14
v 529.188 424.21 14.4106
vt -0.567348 24.8807
v 517.469 403.912 14.4106
f 395/635/202 396/637/202 397/434/202 394/484/202 

v 540.907 444.507 9.41065
vn 0.866025 -0.5 3.47563e-14
v 540.907 444.507 14.4106
f 398/423/203 399/433/203 396/637/203 395/635/203 

v 474.924 482.602 14.4106
vn 0.5 0.866025 1.53094e-14
v 474.924 482.602 9.41065
f 400/627/204 399/614/204 398/634/204 401/628/204 

vt 18.6978 19.0001
vn -1.06271e-15 -3.83227e-15 1
v 457.604 492.602 14.4106
vt 18.0159 19.3938
v 434.166 452.007 14.4106
vt 17.0932 17.7956
v 451.487 442.007 14.4106
f 400/638/205 402/639/205 403/640/205 404/630/205 397/259/205 396/258/205 399/257/205 

v 457.604 492.602 9.41065
vt -0.370498 -5.90532
vn 0.5 0.866025 3.85235e-14
vt -0.567348 -5.90532
f 405/641/206 402/642/206 400/627/206 401/628/206 

v 457.604 492.602 -20.5894
vn -0.866025 0.5 1.06386e-14
v 457.604 492.602 -25.5894
v 434.166 452.007 -25.5894
v 434.166 452.007 -20.5894
v 434.166 452.007 9.41065
f 406/340/207 407/341/207 408/343/207 409/344/207 410/474/207 403/477/207 402/488/207 405/487/207 

v 474.924 482.602 -20.5894
vn 0.5 0.866025 1.14568e-13
v 540.907 444.507 -20.5894
vt 0.810604 -9.69233
v 540.907 444.507 -25.5894
vt 1.00745 -5.90532
vt 0.810604 -5.90532
f 411/629/208 412/643/208 413/619/208 407/644/208 406/645/208 

v 486.643 502.9 -20.5894
vt -19.1592 19.7992
vn -7.05368e-15 -3.73378e-16 -1
v 552.625 464.805 -20.5894
vt -21.7569 18.2994
vt -21.2955 17.5003
vt -18.6978 19.0001
f 414/646/209 415/647/209 412/648/209 411/649/209 

vt -0.810604 -6.69273
vn -0.5 -0.866025 -1.45422e-13
v 482.313 505.4 -20.5894
vt -0.810604 -6.49587
v 482.313 505.4 -25.5894
vt -1.00745 -6.49587
v 552.625 464.805 -25.5894
vt -1.00745 -9.69233
vt -0.810604 -9.69233
f 414/650/210 416/651/210 417/652/210 418/653/210 415/654/210 

v 482.313 505.4 9.41065
vn -0.5 -0.866025 -2.38477e-14
v 486.643 502.9 9.41065
vt 0.370498 -6.69273
f 419/1/211 416/651/211 414/650/211 420/655/211 

vn -0.866025 0.5 1.51969e-14
v 482.313 505.4 14.4106
v 505.75 545.995 -20.5894
v 505.75 545.995 -25.5894
f 419/405/212 421/406/212 4/407/212 1/408/212 422/336/212 423/337/212 417/338/212 416/339/212 

vn -0.5 -0.866025 6.49542e-14
v 486.643 502.9 14.4106
vt 0.567348 -6.69273
f 420/655/213 424/656/213 421/4/213 419/1/213 

vn -0.5 -0.866025 -3.92964e-16
f 424/656/214 420/655/214 6/2/214 5/3/214 

vt 19.1592 19.7992
vn -2.69814e-15 -1.17797e-14 1
f 420/657/215 401/638/215 398/257/215 6/256/215 

vn -0.866025 0.5 2.1932e-15
f 420/405/216 414/339/216 411/340/216 401/487/216 

vn 0.5 0.866025 -9.02536e-15
f 406/645/217 405/641/217 401/628/217 411/629/217 

vt -0.173648 25.8035
vn 0.866025 -0.5 -9.0218e-15
vt -0.173648 26.7262
f 157/658/218 156/659/218 6/8/218 398/423/218 

vn 0.866025 -0.5 -3.61381e-14
vt -0.173648 28.5717
f 2/5/219 6/8/219 156/659/219 155/660/219 

vn 0.5 -0.866025 -7.81887e-14
vt -0.173648 29.59
vt -0.173648 31.7209
f 2/12/220 155/661/220 154/662/220 9/13/220 

vn 1.11656e-13 -1 -3.60956e-14
vt -24.5251 -0.173648
vt -26.3706 -0.173648
f 30/47/221 9/50/221 154/663/221 153/664/221 

vn -1.80959e-13 -1 -1.80478e-14
vt -27.2933 -0.173648
vt -27.2933 -0.370498
f 153/664/222 152/665/222 31/666/222 30/47/222 

vn -4.23521e-14 -1 -5.41434e-14
vt -28.2161 -0.173648
v 716.688 532.463 9.41065
vt -28.2161 -0.370498
f 152/665/223 151/667/223 425/668/223 31/666/223 

v 740.125 532.463 9.41065
vt -29.1388 -0.370498
vn -8.47043e-14 -1 -3.60956e-14
vt -29.1388 -0.173648
f 426/669/224 425/668/224 151/667/224 150/670/224 

vn -2.57963e-13 -1 8.1215e-13
vt -29.1388 -0.567348
vt -28.2161 -0.567348
f 426/669/225 56/671/225 55/672/225 425/668/225 

vn 1 2.36879e-14 4.23309e-28
f 53/30/226 56/24/226 426/46/226 58/31/226 

vt 30.0615 23.9627
vn 3.10102e-28 -2.36879e-15 1
f 62/673/227 58/88/227 426/92/227 67/106/227 

vn 3.73469e-13 -1 1.80478e-14
f 150/670/228 138/245/228 67/113/228 426/669/228 

vn 1.23206e-13 -1 8.66294e-13
vt -27.2933 -0.567348
f 425/668/229 55/672/229 50/674/229 31/666/229 

v 591.688 532.463 9.41065
vt 23.2948 20.9631
f 9/15/64 427/675/64 2/21/64

vn 0.866025 -0.5 1.80126e-14
f 398/423/230 395/635/230 158/636/230 157/658/230 

vn 6.54083e-16 -1.50395e-15 1
vt 18.9887 19.8976
f 5/256/231 3/21/231 4/20/231 421/676/231 424/657/231 

vn -0.5 -0.866025 2.95729e-13
vt 0.961049 -9.69233
vt 0.961049 -6.49587
f 3/3/232 8/677/232 15/678/232 4/4/232 

v 576.063 505.4 -25.5894
vn -0.5 -0.866025 4.35504e-15
vt 0.961049 -5.43039
v 482.313 559.526 -35.5894
vt -1.40116 -5.43039
v 576.063 505.4 -35.5894
vt -1.40116 -9.69233
f 428/653/233 423/652/233 422/651/233 1/1/233 4/4/233 15/678/233 14/679/233 429/680/233 430/681/233 

vt -18.9887 19.8976
vn 1.89339e-28 4.44582e-15 -1
vt -19.9114 21.4959
f 417/682/234 423/683/234 428/362/234 418/647/234 

vn -0.5 -0.866025 9.6648e-13
v 576.063 505.4 -20.5894
f 428/653/235 431/654/235 422/651/235 423/652/235 

vn 0.866025 -0.5 -3.73877e-15
vt 0.613754 28.5717
vt 0.613754 24.8807
vt 0.613754 21.1898
v 482.313 343.02 -20.5894
v 505.75 383.615 -25.5894
v 505.75 383.615 -20.5894
v 517.469 403.912 -20.5894
v 517.469 403.912 -25.5894
v 529.188 424.21 -25.5894
vt 1.00745 24.8807
f 431/417/236 242/684/236 241/685/236 240/686/236 432/448/236 380/449/236 433/450/236 434/451/236 435/430/236 436/431/236 437/687/236 413/432/236 412/424/236 415/414/236 418/415/236 428/416/236 

vt 0.810604 29.59
vn 0.5 -0.866025 -2.62027e-15
vt 1.00745 29.59
vt 1.40116 29.59
vt 1.40116 31.7209
vt 1.00745 31.7209
vt 0.810604 31.7209
vt 0.613754 31.7209
vt 0.613754 29.59
f 431/688/237 428/689/237 430/690/237 33/691/237 32/692/237 35/693/237 48/694/237 242/695/237 

vn -2.54541e-15 -1.59309e-15 -1
vt -18.9887 22.0286
v 529.188 640.716 -35.5894
vt -20.8342 25.2251
vt -24.5251 25.2251
f 430/362/238 429/696/238 438/697/238 34/698/238 33/77/238 

vt -1.40116 32.2626
vn -0.866025 0.5 4.81159e-15
vt -1.40116 28.5717
vt 0.961049 28.5717
vt 0.961049 32.2626
f 438/699/239 429/700/239 14/701/239 13/702/239 

vt 24.5251 1.40116
vn 4.94133e-32 1 -1.20319e-14
vt 20.8342 1.40116
vt 20.8342 -0.961049
vt 24.5251 -0.961049
f 34/703/240 438/704/240 13/705/240 12/706/240 

v 482.313 288.893 -20.5894
vt 0.810604 11.3738
vn 1 6.66873e-15 4.53773e-14
v 482.313 288.893 -25.5894
vt 1.00745 11.3738
v 482.313 288.893 -35.5894
vt 1.40116 11.3738
vt 1.40116 13.5047
vt 1.00745 13.5047
vt 0.810604 13.5047
vt 0.613754 13.5047
vt 0.613754 11.3738
f 439/707/241 440/708/241 441/709/241 381/710/241 380/711/241 432/712/241 240/713/241 239/714/241 

v 412 248.299 -25.5894
vt 1.00745 18.9351
vn 0.5 -0.866025 2.07171e-13
vt 1.00745 22.1316
vt 0.810604 22.1316
v 412 248.299 -20.5894
vt 0.810604 18.9351
f 442/715/242 440/716/242 439/717/242 443/718/242 

v 412 248.299 9.41065
vt -0.370498 18.9351
vn 0.5 -0.866025 7.82145e-15
v 412 248.299 14.4106
vt -0.567348 18.9351
vt -0.961049 22.1316
vt -0.961049 17.8696
v 388.563 234.767 -35.5894
vt 1.40116 17.8696
vt 1.40116 22.1316
f 444/719/243 445/720/243 371/589/243 370/721/243 375/722/243 446/723/243 441/724/243 440/716/243 442/715/243 443/718/243 

vn -0.866025 -0.5 1.02995e-14
v 435.438 207.704 -25.5894
v 435.438 207.704 -20.5894
v 435.438 207.704 9.41065
v 435.438 207.704 14.4106
f 445/201/244 444/202/244 443/176/244 442/177/244 447/178/244 448/163/244 449/199/244 450/200/244 

vn 0.5 -0.866025 1.63852e-13
f 444/719/245 367/590/245 371/589/245 445/720/245 

vn 0.866025 0.5 -1.58965e-13
v 505.75 248.299 14.4106
f 367/191/246 371/192/246 451/193/246 366/210/246 

vn 3.91594e-15 -3.41767e-15 1
vt 16.2205 9.77553
vt 17.1432 8.17731
v 439.768 210.204 14.4106
vt 17.3137 8.27573
f 451/263/247 371/262/247 445/725/247 450/726/247 452/727/247 

v 439.768 210.204 9.41065
vn 0.5 -0.866025 6.01173e-14
f 453/586/248 452/587/248 450/720/248 449/719/248 

vn 0.5 -0.866025 2.34214e-14
f 452/587/249 453/586/249 366/590/249 451/589/249 

vn 4.10287e-15 2.36879e-15 1
f 453/727/250 363/591/250 364/264/250 366/263/250 

vn -0.866025 -0.5 1.79374e-14
v 439.768 210.204 -20.5894
v 451.487 189.906 -20.5894
f 453/199/251 454/163/251 455/164/251 363/236/251 

vn 0.5 -0.866025 -2.41586e-14
f 449/719/252 448/718/252 454/585/252 453/586/252 

vn 0.5 -0.866025 1.45542e-13
v 505.75 248.299 -25.5894
v 505.75 248.299 -20.5894
f 454/585/253 448/718/253 447/715/253 456/716/253 457/717/253 

vt -17.1432 8.17731
vn -1.9251e-15 -1.11146e-15 -1
vt -16.2205 9.77553
vt -19.9114 9.77553
f 447/728/254 442/729/254 440/359/254 456/730/254 

vn 0.866025 0.5 3.31162e-14
vt 0.613754 0.355618
vt 0.613754 -3.33533
vt 0.613754 -7.02627
v 552.625 167.109 -25.5894
v 552.625 167.109 -20.5894
v 540.907 187.406 -20.5894
v 540.907 187.406 -25.5894
v 529.188 207.704 -25.5894
vt 1.00745 -3.33533
v 517.469 228.001 -25.5894
v 517.469 228.001 -20.5894
f 439/197/255 239/731/255 238/732/255 237/733/255 317/376/255 316/377/255 458/378/255 459/379/255 460/219/255 461/220/255 462/734/255 463/221/255 464/209/255 457/194/255 456/195/255 440/196/255 

vn -0.5 0.866025 -1.0765e-12
vt -0.810604 22.1316
f 333/566/256 317/735/256 316/568/256 334/567/256 

vt -21.7569 6.57908
vn -1.34757e-14 1.11146e-15 -1
vt -19.9114 3.38263
vt -18.9887 4.98086
f 458/736/257 316/357/257 334/737/257 340/738/257 

vn -0.5 0.866025 2.37387e-13
f 343/576/258 459/735/258 458/568/258 340/567/258 339/566/258 

vt -21.2955 7.37819
vn -1.02572e-14 -5.92198e-15 -1
vt -19.1592 5.07928
vt -18.6978 5.87839
f 460/739/259 459/736/259 343/740/259 349/741/259 

vn 0.5 -0.866025 -3.99672e-13
vt 1.00745 18.3446
f 349/585/260 351/584/260 357/742/260 461/716/260 460/717/260 

vt -18.0159 5.48469
vn -4.17104e-15 -4.63106e-15 -1
vt -17.0932 7.08292
vt -20.3728 8.97642
f 357/743/261 356/744/261 463/745/261 462/358/261 461/739/261 

vn -0.5 0.866025 2.40377e-14
vt -1.00745 18.3446
vt -0.810604 18.3446
f 455/576/262 464/735/262 463/568/262 356/746/262 355/747/262 

vt -17.3137 8.27573
vn -9.10511e-15 -8.11017e-16 -1
vt -17.7751 7.47662
f 454/748/263 457/730/263 464/745/263 455/749/263 

vn -0.5 0.866025 7.62804e-15
f 355/747/264 354/594/264 363/575/264 455/576/264 

v 341.688 315.957 -35.5894
vt -1.40116 4.04656
vn -0.866025 -0.5 7.44124e-16
vt -1.40116 0.355618
vt 0.961049 0.355618
vt 0.961049 4.04656
f 465/750/265 446/751/265 375/752/265 374/753/265 

vn -3.74324e-15 -2.33406e-15 -1
vt -15.2977 9.24279
vt -13.4523 12.4392
vt -15.2977 15.6357
f 441/359/266 446/754/266 465/755/266 382/756/266 381/360/266 

vt -1.40116 21.1898
vn -0.866025 0.5 4.84355e-15
vt -1.40116 17.4988
vt 0.961049 17.4988
vt 0.961049 21.1898
f 382/757/267 465/758/267 374/759/267 373/760/267 

vn 0.5 0.866025 -6.36525e-13
f 432/643/268 380/619/268 379/618/268 378/617/268 

vt -19.9114 15.103
vn -3.85019e-15 4.44582e-15 -1
vt -16.2205 15.103
vt -17.1432 16.7012
f 433/761/269 380/360/269 379/762/269 389/763/269 

vn 0.5 0.866025 2.53532e-14
f 390/629/270 434/643/270 433/619/270 389/618/270 388/617/270 

vt -20.3728 15.9021
vn -1.3208e-14 3.17981e-15 -1
vt -17.3137 16.6028
vt -17.7751 17.4019
f 435/764/271 434/761/271 390/765/271 392/766/271 

vn -0.5 -0.866025 -8.59856e-14
vt -0.810604 -5.90532
vt -1.00745 -5.90532
f 392/650/272 409/767/272 408/768/272 436/653/272 435/654/272 

vt 0.370498 -5.90532
vn -0.5 -0.866025 -1.86387e-14
f 410/769/273 409/767/273 392/650/273 391/655/273 

vn -0.5 -0.866025 -0
vt 0.567348 -5.90532
f 391/655/274 404/656/274 403/770/274 410/769/274 

vn -0.5 -0.866025 -1.59816e-16
f 397/3/275 404/656/275 391/655/275 394/2/275 

vt -17.0932 17.7956
vn -4.81274e-15 5.00155e-15 -1
vt -18.0159 19.3938
f 408/771/276 407/772/276 413/648/276 437/361/276 436/764/276 

vn -5.77529e-15 -3.33437e-15 1
v 466.688 315.957 9.41065
vt 18.3735 12.4392
f 368/261/277 466/773/277 367/262/277

vn 0.866025 0.5 2.25626e-14
vt -0.173648 -5.1808
f 348/513/278 346/512/278 167/774/278 166/598/278 

vn 0.866025 0.5 3.14508e-14
vt -0.173648 -7.02627
f 346/512/279 328/374/279 168/775/279 167/774/279 

vn 0.5 0.866025 2.34196e-14
vt -0.173648 -19.2817
vt -0.173648 -17.1507
f 328/560/280 326/559/280 169/776/280 168/777/280 

vn 0 -1.33375e-14 1
v 591.688 99.4504 9.41065
vt 23.2948 3.91537
f 328/268/281 467/778/281 326/269/281

v 669.813 99.4504 9.41065
vn -1.00105e-13 1 -1.80478e-14
vt 26.3706 -0.173648
vt 24.5251 -0.173648
f 468/32/282 170/779/282 169/780/282 326/37/282 

vn 5.77529e-14 1 6.48106e-28
v 693.25 99.4504 9.41065
vt 27.2933 -0.173648
f 468/32/283 469/42/283 171/781/283 170/779/283 

v 669.813 23.2605 9.41065
vt 26.3706 0.91577
vn -7.70039e-15 7.10637e-15 1
v 693.25 23.2605 9.41065
vt 27.2933 0.91577
f 470/782/284 471/783/284 469/271/284 468/270/284 

vn 2.25236e-13 -1 1.05279e-14
v 669.813 23.2605 -20.5894
v 693.25 23.2605 -20.5894
f 470/47/285 472/57/285 473/58/285 471/666/285 

v 669.813 18.2605 -20.5894
vn 1 4.2681e-13 -2.12726e-14
vt 0.810604 0.91577
vt -0.370498 0.91577
v 669.813 23.2605 14.4106
vt -0.567348 0.91577
v 669.813 18.2605 14.4106
f 474/547/286 472/784/286 470/785/286 475/786/286 476/548/286 

vn 1 1.56729e-14 1.21415e-13
v 669.813 18.2605 -25.5894
f 472/784/287 474/547/287 477/544/287 214/545/287 213/546/287 

vn 2.18032e-14 -1 7.38318e-15
f 325/50/288 319/70/288 318/71/288 477/72/288 474/57/288 476/48/288 320/49/288 

vt -26.3706 0.718919
vt -24.5251 0.718919
vt -26.3706 3.91537
f 477/787/254 318/788/254 215/356/254 214/789/254 

v 669.813 99.4504 14.4106
vn 5.52592e-15 -9.85211e-16 1
vt 24.5251 0.718919
vt 26.3706 0.718919
f 478/270/289 321/269/289 320/790/289 476/791/289 475/782/289 

vn -9.818e-14 1 -1.80478e-14
f 326/37/290 321/38/290 478/39/290 468/32/290 

vn 1 2.84255e-14 5.30408e-28
f 475/786/291 470/785/291 468/555/291 478/549/291 

vt -26.3706 0.91577
vn 2.18976e-28 -2.36879e-15 -1
vt -27.2933 3.91537
vt -27.2933 0.91577
f 472/792/292 213/789/292 212/793/292 473/794/292 

vn -1 -2.36451e-14 -5.61097e-14
v 693.25 3.26055 -25.5894
vt -1.00745 0.128368
v 693.25 3.26055 -20.5894
vt -0.810604 0.128368
f 473/310/293 212/316/293 211/313/293 479/795/293 480/796/293 

v 740.125 3.26055 -25.5894
vt -29.1388 0.128368
vn 1.9251e-15 -3.33437e-15 -1
vt -27.2933 0.128368
vt -29.1388 3.91537
f 481/797/294 479/798/294 211/793/294 210/355/294 209/799/294 

vn 4.49189e-14 -1 -3.08712e-15
v 740.125 3.26055 -20.5894
v 740.125 3.26055 14.4106
v 693.25 3.26055 14.4106
f 480/58/295 479/59/295 481/61/295 482/62/295 483/671/295 484/674/295 

v 740.125 23.2605 -20.5894
vn 1 -8.94299e-15 -8.1381e-14
vt 0.810604 0.128368
vt 1.00745 0.128368
f 485/784/296 482/800/296 481/801/296 209/545/296 208/546/296 

vn 1 -2.02316e-13 1.17678e-14
v 740.125 23.2605 9.41065
v 740.125 23.2605 14.4106
vt -0.567348 0.128368
f 482/800/297 485/784/297 486/785/297 487/786/297 483/802/297 

vn -9.62549e-15 -1 -1.65438e-14
f 486/669/298 485/62/298 198/63/298 195/113/298 

vn -3.85019e-15 -1.30283e-14 -1
vt -30.0615 3.91537
vt -30.0615 0.91577
vt -29.1388 0.91577
f 208/799/299 207/803/299 198/804/299 485/805/299 

vn -1 1.70057e-14 -6.79322e-14
f 198/310/300 207/316/300 206/313/300 199/312/300 197/309/300 

vn -5.77529e-15 -1.00031e-14 -1
vt -31.907 0.718919
vt -30.0615 0.718919
f 206/803/301 202/354/301 200/806/301 199/807/301 

vt 29.1388 0.91577
vn -7.70039e-15 4.73758e-15 1
v 740.125 99.4504 9.41065
f 486/808/302 195/307/302 192/274/302 488/273/302 

vn 1.23206e-13 1 1.94565e-29
vt 30.0615 -0.173648
vt 29.1388 -0.173648
f 488/98/303 192/102/303 174/809/303 173/810/303 

vn 1.3957e-13 1 9.02389e-15
vt 31.907 -0.173648
f 184/304/304 175/811/304 174/809/304 192/102/304 

vn -0.5 0.866025 3.11705e-14
vt 0.173648 31.7209
vt 0.173648 29.59
f 184/290/305 176/289/305 139/812/305 175/813/305 

v 841.688 99.4504 9.41065
vt 33.1373 3.91537
f 184/275/64 489/814/64 176/247/64

vn -3.85019e-13 1 -4.66869e-29
vt 28.2161 -0.173648
v 716.688 99.4504 9.41065
vt 28.2161 -0.370498
f 488/98/306 173/810/306 172/815/306 490/816/306 

vn 1.42457e-13 1 1.80478e-14
f 490/816/307 172/815/307 171/781/307 469/42/307 

vn 6.93035e-14 1 -3.2486e-13
v 693.25 99.4504 14.4106
v 716.688 99.4504 14.4106
vt 28.2161 -0.567348
f 469/42/308 491/96/308 492/817/308 490/816/308 

v 693.25 23.2605 14.4106
vn -1 -3.31631e-14 5.86577e-28
f 493/305/309 491/298/309 469/300/309 471/306/309 

vn -6.41699e-15 1.48273e-16 1
vt 27.2933 0.128368
vt 29.1388 0.128368
v 740.125 99.4504 14.4106
f 493/783/310 484/818/310 483/819/310 487/808/310 494/273/310 492/272/310 491/271/310 

vn -1 -2.16573e-13 1.1837e-29
vt 0.567348 0.128368
f 480/796/311 484/820/311 493/305/311 471/306/311 473/310/311 

vn 1 -1.42127e-14 -1.232e-28
f 494/549/312 487/786/312 486/785/312 488/555/312 

vn -3.13791e-13 1 -3.15836e-13
f 490/816/313 492/817/313 494/97/313 488/98/313 

vn -0.5 0.866025 -5.42532e-13
vt 0.961049 22.1316
f 336/573/314 330/572/314 327/821/314 329/580/314 

vt -24.5251 -0.346565
vn 9.19769e-16 -4.07534e-16 -1
v 529.188 -8.80275 -35.5894
vt -20.8342 -0.346565
vt -18.9887 2.84989
f 324/822/315 495/823/315 335/824/315 315/357/315 314/356/315 

vt -20.8342 1.40116
vn -1.44382e-15 -1 7.51991e-16
vt -24.5251 1.40116
vt -24.5251 -0.961049
vt -20.8342 -0.961049
f 495/825/316 324/826/316 323/827/316 332/828/316 

vt -1.40116 -7.02627
vn -0.866025 -0.5 -3.34497e-15
vt -1.40116 -10.7172
vt 0.961049 -10.7172
vt 0.961049 -7.02627
f 335/829/317 495/830/317 332/831/317 331/832/317 

vn -1 -3.11207e-14 9.38485e-13
f 89/105/318 44/83/318 45/84/318 90/145/318 

vt -30.0615 24.1596
vn 1.74348e-28 2.22291e-15 -1
vt -31.907 24.1596
vt -30.0615 20.9631
f 66/833/319 89/834/319 44/136/319 43/835/319 

vn -6.35282e-14 1 1.67272e-14
f 69/303/320 91/304/320 90/317/320 89/318/320 66/319/320 65/302/320 

vn -1 -2.4452e-14 -7.58007e-13
f 91/146/321 70/87/321 68/80/321 69/104/321 

vt -30.0615 23.9627
vn -7.70039e-15 1.27576e-28 -1
vt -29.1388 20.9631
vt -29.1388 23.9627
f 63/836/322 42/835/322 41/837/322 61/838/322 

vn 1 -4.27734e-14 1.13533e-13
vt 1.00745 24.7501
f 61/41/323 41/56/323 40/53/323 60/839/323 59/101/323 

vt -27.2933 24.7501
vn 1.9251e-15 6.66873e-15 -1
vt -29.1388 24.7501
f 52/840/324 60/841/324 40/837/324 39/348/324 38/73/324 

